<mxfile host="Electron" agent="Mozilla/5.0 (Windows NT 10.0; Win64; x64) AppleWebKit/537.36 (KHTML, like Gecko) draw.io/24.7.17 Chrome/128.0.6613.36 Electron/32.0.1 Safari/537.36" version="24.7.17">
  <diagram id="C5RBs43oDa-KdzZeNtuy" name="Page-1">
    <mxGraphModel dx="2208" dy="1988" grid="1" gridSize="10" guides="1" tooltips="1" connect="1" arrows="1" fold="1" page="1" pageScale="1" pageWidth="827" pageHeight="1169" math="0" shadow="0">
      <root>
        <mxCell id="WIyWlLk6GJQsqaUBKTNV-0" />
        <mxCell id="WIyWlLk6GJQsqaUBKTNV-1" parent="WIyWlLk6GJQsqaUBKTNV-0" />
        <mxCell id="WIyWlLk6GJQsqaUBKTNV-2" value="" style="rounded=0;html=1;jettySize=auto;orthogonalLoop=1;fontSize=11;endArrow=block;endFill=0;endSize=8;strokeWidth=1;shadow=0;labelBackgroundColor=none;edgeStyle=orthogonalEdgeStyle;" parent="WIyWlLk6GJQsqaUBKTNV-1" source="WIyWlLk6GJQsqaUBKTNV-3" target="WIyWlLk6GJQsqaUBKTNV-6" edge="1">
          <mxGeometry relative="1" as="geometry" />
        </mxCell>
        <mxCell id="WIyWlLk6GJQsqaUBKTNV-3" value="Пересечение с аномалией" style="rounded=1;whiteSpace=wrap;html=1;fontSize=12;glass=0;strokeWidth=1;shadow=0;" parent="WIyWlLk6GJQsqaUBKTNV-1" vertex="1">
          <mxGeometry x="340" y="-320" width="120" height="40" as="geometry" />
        </mxCell>
        <mxCell id="WIyWlLk6GJQsqaUBKTNV-5" value="Нет" style="edgeStyle=orthogonalEdgeStyle;rounded=0;html=1;jettySize=auto;orthogonalLoop=1;fontSize=11;endArrow=block;endFill=0;endSize=8;strokeWidth=1;shadow=0;labelBackgroundColor=none;" parent="WIyWlLk6GJQsqaUBKTNV-1" source="WIyWlLk6GJQsqaUBKTNV-6" target="WIyWlLk6GJQsqaUBKTNV-7" edge="1">
          <mxGeometry y="10" relative="1" as="geometry">
            <mxPoint as="offset" />
          </mxGeometry>
        </mxCell>
        <mxCell id="dnqFIHNs72ReMNe9dB7b-3" style="edgeStyle=orthogonalEdgeStyle;rounded=0;orthogonalLoop=1;jettySize=auto;html=1;exitX=0;exitY=0.5;exitDx=0;exitDy=0;entryX=1;entryY=0.5;entryDx=0;entryDy=0;" edge="1" parent="WIyWlLk6GJQsqaUBKTNV-1" source="WIyWlLk6GJQsqaUBKTNV-6" target="dnqFIHNs72ReMNe9dB7b-2">
          <mxGeometry relative="1" as="geometry" />
        </mxCell>
        <mxCell id="WIyWlLk6GJQsqaUBKTNV-6" value="Аномалия готова? (Прошло КД и инициатор указан в списке инициаторов" style="rhombus;whiteSpace=wrap;html=1;shadow=0;fontFamily=Helvetica;fontSize=12;align=center;strokeWidth=1;spacing=6;spacingTop=-4;" parent="WIyWlLk6GJQsqaUBKTNV-1" vertex="1">
          <mxGeometry x="320" y="-240" width="160" height="140" as="geometry" />
        </mxCell>
        <mxCell id="WIyWlLk6GJQsqaUBKTNV-7" value="Конец кода" style="rounded=1;whiteSpace=wrap;html=1;fontSize=12;glass=0;strokeWidth=1;shadow=0;" parent="WIyWlLk6GJQsqaUBKTNV-1" vertex="1">
          <mxGeometry x="510" y="-190" width="120" height="40" as="geometry" />
        </mxCell>
        <mxCell id="dnqFIHNs72ReMNe9dB7b-6" style="edgeStyle=orthogonalEdgeStyle;rounded=0;orthogonalLoop=1;jettySize=auto;html=1;exitX=0.5;exitY=1;exitDx=0;exitDy=0;entryX=0.5;entryY=0;entryDx=0;entryDy=0;" edge="1" parent="WIyWlLk6GJQsqaUBKTNV-1" source="dnqFIHNs72ReMNe9dB7b-2" target="dnqFIHNs72ReMNe9dB7b-5">
          <mxGeometry relative="1" as="geometry" />
        </mxCell>
        <mxCell id="dnqFIHNs72ReMNe9dB7b-8" style="edgeStyle=orthogonalEdgeStyle;rounded=0;orthogonalLoop=1;jettySize=auto;html=1;exitX=0.75;exitY=1;exitDx=0;exitDy=0;entryX=0.5;entryY=0;entryDx=0;entryDy=0;" edge="1" parent="WIyWlLk6GJQsqaUBKTNV-1" source="dnqFIHNs72ReMNe9dB7b-2" target="dnqFIHNs72ReMNe9dB7b-10">
          <mxGeometry relative="1" as="geometry">
            <mxPoint x="270" y="-50" as="targetPoint" />
            <mxPoint x="170" y="-120" as="sourcePoint" />
          </mxGeometry>
        </mxCell>
        <mxCell id="dnqFIHNs72ReMNe9dB7b-9" value="Нет" style="edgeLabel;html=1;align=center;verticalAlign=middle;resizable=0;points=[];" vertex="1" connectable="0" parent="dnqFIHNs72ReMNe9dB7b-8">
          <mxGeometry x="-0.3431" y="1" relative="1" as="geometry">
            <mxPoint as="offset" />
          </mxGeometry>
        </mxCell>
        <mxCell id="dnqFIHNs72ReMNe9dB7b-2" value="Аномалия активна?" style="rounded=0;whiteSpace=wrap;html=1;" vertex="1" parent="WIyWlLk6GJQsqaUBKTNV-1">
          <mxGeometry x="90" y="-200" width="120" height="60" as="geometry" />
        </mxCell>
        <mxCell id="dnqFIHNs72ReMNe9dB7b-29" style="edgeStyle=orthogonalEdgeStyle;rounded=0;orthogonalLoop=1;jettySize=auto;html=1;exitX=0.5;exitY=1;exitDx=0;exitDy=0;entryX=0.25;entryY=0;entryDx=0;entryDy=0;" edge="1" parent="WIyWlLk6GJQsqaUBKTNV-1" source="dnqFIHNs72ReMNe9dB7b-5" target="dnqFIHNs72ReMNe9dB7b-17">
          <mxGeometry relative="1" as="geometry" />
        </mxCell>
        <mxCell id="dnqFIHNs72ReMNe9dB7b-5" value="Перенос в центр" style="rounded=0;whiteSpace=wrap;html=1;" vertex="1" parent="WIyWlLk6GJQsqaUBKTNV-1">
          <mxGeometry x="50" y="-80" width="120" height="60" as="geometry" />
        </mxCell>
        <mxCell id="dnqFIHNs72ReMNe9dB7b-7" value="Да" style="text;html=1;align=center;verticalAlign=middle;resizable=0;points=[];autosize=1;strokeColor=none;fillColor=none;" vertex="1" parent="WIyWlLk6GJQsqaUBKTNV-1">
          <mxGeometry x="130" y="-142" width="40" height="30" as="geometry" />
        </mxCell>
        <mxCell id="dnqFIHNs72ReMNe9dB7b-30" style="edgeStyle=orthogonalEdgeStyle;rounded=0;orthogonalLoop=1;jettySize=auto;html=1;exitX=0.5;exitY=1;exitDx=0;exitDy=0;entryX=0.75;entryY=0;entryDx=0;entryDy=0;" edge="1" parent="WIyWlLk6GJQsqaUBKTNV-1" source="dnqFIHNs72ReMNe9dB7b-10" target="dnqFIHNs72ReMNe9dB7b-17">
          <mxGeometry relative="1" as="geometry" />
        </mxCell>
        <mxCell id="dnqFIHNs72ReMNe9dB7b-10" value="Активировать аномалию, перенести в центр" style="rounded=0;whiteSpace=wrap;html=1;" vertex="1" parent="WIyWlLk6GJQsqaUBKTNV-1">
          <mxGeometry x="190" y="-80" width="120" height="60" as="geometry" />
        </mxCell>
        <mxCell id="dnqFIHNs72ReMNe9dB7b-18" style="edgeStyle=orthogonalEdgeStyle;rounded=0;orthogonalLoop=1;jettySize=auto;html=1;exitX=0.5;exitY=1;exitDx=0;exitDy=0;entryX=0.5;entryY=0;entryDx=0;entryDy=0;" edge="1" parent="WIyWlLk6GJQsqaUBKTNV-1" source="dnqFIHNs72ReMNe9dB7b-15" target="dnqFIHNs72ReMNe9dB7b-16">
          <mxGeometry relative="1" as="geometry" />
        </mxCell>
        <mxCell id="dnqFIHNs72ReMNe9dB7b-19" value="" style="edgeStyle=orthogonalEdgeStyle;rounded=0;orthogonalLoop=1;jettySize=auto;html=1;" edge="1" parent="WIyWlLk6GJQsqaUBKTNV-1" source="dnqFIHNs72ReMNe9dB7b-15" target="dnqFIHNs72ReMNe9dB7b-16">
          <mxGeometry relative="1" as="geometry" />
        </mxCell>
        <mxCell id="dnqFIHNs72ReMNe9dB7b-15" value="Жертва пытается выйти из аномалии" style="rounded=0;whiteSpace=wrap;html=1;" vertex="1" parent="WIyWlLk6GJQsqaUBKTNV-1">
          <mxGeometry x="30" y="100" width="120" height="60" as="geometry" />
        </mxCell>
        <mxCell id="dnqFIHNs72ReMNe9dB7b-32" style="edgeStyle=orthogonalEdgeStyle;rounded=0;orthogonalLoop=1;jettySize=auto;html=1;exitX=0.5;exitY=1;exitDx=0;exitDy=0;entryX=0.5;entryY=0;entryDx=0;entryDy=0;" edge="1" parent="WIyWlLk6GJQsqaUBKTNV-1" source="dnqFIHNs72ReMNe9dB7b-16" target="dnqFIHNs72ReMNe9dB7b-20">
          <mxGeometry relative="1" as="geometry" />
        </mxCell>
        <mxCell id="dnqFIHNs72ReMNe9dB7b-16" value="Запуск прогресс бара на 2 секунды" style="rounded=0;whiteSpace=wrap;html=1;" vertex="1" parent="WIyWlLk6GJQsqaUBKTNV-1">
          <mxGeometry x="30" y="180" width="120" height="60" as="geometry" />
        </mxCell>
        <mxCell id="dnqFIHNs72ReMNe9dB7b-25" style="edgeStyle=orthogonalEdgeStyle;rounded=0;orthogonalLoop=1;jettySize=auto;html=1;exitX=1;exitY=0.5;exitDx=0;exitDy=0;entryX=0;entryY=0.5;entryDx=0;entryDy=0;" edge="1" parent="WIyWlLk6GJQsqaUBKTNV-1" source="dnqFIHNs72ReMNe9dB7b-17" target="dnqFIHNs72ReMNe9dB7b-26">
          <mxGeometry relative="1" as="geometry">
            <mxPoint x="390" y="40" as="targetPoint" />
          </mxGeometry>
        </mxCell>
        <mxCell id="dnqFIHNs72ReMNe9dB7b-31" style="edgeStyle=orthogonalEdgeStyle;rounded=0;orthogonalLoop=1;jettySize=auto;html=1;exitX=0.25;exitY=1;exitDx=0;exitDy=0;entryX=0.5;entryY=0;entryDx=0;entryDy=0;" edge="1" parent="WIyWlLk6GJQsqaUBKTNV-1" source="dnqFIHNs72ReMNe9dB7b-17" target="dnqFIHNs72ReMNe9dB7b-15">
          <mxGeometry relative="1" as="geometry" />
        </mxCell>
        <mxCell id="dnqFIHNs72ReMNe9dB7b-17" value="ПОКА АНОМАЛИЯ АКТИВНА" style="rounded=0;whiteSpace=wrap;html=1;" vertex="1" parent="WIyWlLk6GJQsqaUBKTNV-1">
          <mxGeometry x="30" y="10" width="290" height="60" as="geometry" />
        </mxCell>
        <mxCell id="dnqFIHNs72ReMNe9dB7b-22" value="Да" style="edgeStyle=orthogonalEdgeStyle;rounded=0;orthogonalLoop=1;jettySize=auto;html=1;exitX=0.25;exitY=1;exitDx=0;exitDy=0;entryX=0.5;entryY=0;entryDx=0;entryDy=0;" edge="1" parent="WIyWlLk6GJQsqaUBKTNV-1" source="dnqFIHNs72ReMNe9dB7b-20" target="dnqFIHNs72ReMNe9dB7b-21">
          <mxGeometry relative="1" as="geometry" />
        </mxCell>
        <mxCell id="dnqFIHNs72ReMNe9dB7b-24" style="edgeStyle=orthogonalEdgeStyle;rounded=0;orthogonalLoop=1;jettySize=auto;html=1;exitX=0.75;exitY=1;exitDx=0;exitDy=0;entryX=0.5;entryY=0;entryDx=0;entryDy=0;" edge="1" parent="WIyWlLk6GJQsqaUBKTNV-1" source="dnqFIHNs72ReMNe9dB7b-20" target="dnqFIHNs72ReMNe9dB7b-23">
          <mxGeometry relative="1" as="geometry" />
        </mxCell>
        <mxCell id="dnqFIHNs72ReMNe9dB7b-20" value="Если аномалия к этому моменту уже успокоилась(позже чем 3.5 секунды после начала работы)" style="rounded=0;whiteSpace=wrap;html=1;" vertex="1" parent="WIyWlLk6GJQsqaUBKTNV-1">
          <mxGeometry x="30" y="270" width="120" height="90" as="geometry" />
        </mxCell>
        <mxCell id="dnqFIHNs72ReMNe9dB7b-21" value="Жертва покидает аномалию" style="rounded=0;whiteSpace=wrap;html=1;" vertex="1" parent="WIyWlLk6GJQsqaUBKTNV-1">
          <mxGeometry x="-30" y="420" width="120" height="50" as="geometry" />
        </mxCell>
        <mxCell id="dnqFIHNs72ReMNe9dB7b-23" value="Жертва остаётся в центре" style="rounded=0;whiteSpace=wrap;html=1;" vertex="1" parent="WIyWlLk6GJQsqaUBKTNV-1">
          <mxGeometry x="120" y="420" width="120" height="50" as="geometry" />
        </mxCell>
        <mxCell id="dnqFIHNs72ReMNe9dB7b-28" style="edgeStyle=orthogonalEdgeStyle;rounded=0;orthogonalLoop=1;jettySize=auto;html=1;exitX=1;exitY=0.5;exitDx=0;exitDy=0;entryX=0;entryY=0.5;entryDx=0;entryDy=0;" edge="1" parent="WIyWlLk6GJQsqaUBKTNV-1" source="dnqFIHNs72ReMNe9dB7b-26" target="dnqFIHNs72ReMNe9dB7b-27">
          <mxGeometry relative="1" as="geometry" />
        </mxCell>
        <mxCell id="dnqFIHNs72ReMNe9dB7b-26" value="Спустя 3.5 секунды&lt;br&gt;Сон 2 секунды(Аномалия больше не всасывает в себя)" style="rounded=0;whiteSpace=wrap;html=1;" vertex="1" parent="WIyWlLk6GJQsqaUBKTNV-1">
          <mxGeometry x="360" y="10" width="170" height="60" as="geometry" />
        </mxCell>
        <mxCell id="dnqFIHNs72ReMNe9dB7b-36" style="edgeStyle=orthogonalEdgeStyle;rounded=0;orthogonalLoop=1;jettySize=auto;html=1;exitX=0.5;exitY=1;exitDx=0;exitDy=0;entryX=0.5;entryY=0;entryDx=0;entryDy=0;" edge="1" parent="WIyWlLk6GJQsqaUBKTNV-1" source="dnqFIHNs72ReMNe9dB7b-27" target="dnqFIHNs72ReMNe9dB7b-33">
          <mxGeometry relative="1" as="geometry" />
        </mxCell>
        <mxCell id="dnqFIHNs72ReMNe9dB7b-27" value="Финальный Акорд(Разрыв)" style="rounded=0;whiteSpace=wrap;html=1;" vertex="1" parent="WIyWlLk6GJQsqaUBKTNV-1">
          <mxGeometry x="560" y="10" width="290" height="60" as="geometry" />
        </mxCell>
        <mxCell id="dnqFIHNs72ReMNe9dB7b-37" style="edgeStyle=orthogonalEdgeStyle;rounded=0;orthogonalLoop=1;jettySize=auto;html=1;exitX=0;exitY=0.5;exitDx=0;exitDy=0;entryX=0;entryY=0.5;entryDx=0;entryDy=0;" edge="1" parent="WIyWlLk6GJQsqaUBKTNV-1" source="dnqFIHNs72ReMNe9dB7b-33" target="dnqFIHNs72ReMNe9dB7b-34">
          <mxGeometry relative="1" as="geometry" />
        </mxCell>
        <mxCell id="dnqFIHNs72ReMNe9dB7b-39" style="edgeStyle=orthogonalEdgeStyle;rounded=0;orthogonalLoop=1;jettySize=auto;html=1;exitX=0;exitY=0.5;exitDx=0;exitDy=0;entryX=0;entryY=0.5;entryDx=0;entryDy=0;" edge="1" parent="WIyWlLk6GJQsqaUBKTNV-1" source="dnqFIHNs72ReMNe9dB7b-33" target="dnqFIHNs72ReMNe9dB7b-35">
          <mxGeometry relative="1" as="geometry" />
        </mxCell>
        <mxCell id="dnqFIHNs72ReMNe9dB7b-45" style="edgeStyle=orthogonalEdgeStyle;rounded=0;orthogonalLoop=1;jettySize=auto;html=1;exitX=0;exitY=0.5;exitDx=0;exitDy=0;entryX=0;entryY=0.5;entryDx=0;entryDy=0;" edge="1" parent="WIyWlLk6GJQsqaUBKTNV-1" source="dnqFIHNs72ReMNe9dB7b-33" target="dnqFIHNs72ReMNe9dB7b-44">
          <mxGeometry relative="1" as="geometry" />
        </mxCell>
        <mxCell id="dnqFIHNs72ReMNe9dB7b-56" style="edgeStyle=orthogonalEdgeStyle;rounded=0;orthogonalLoop=1;jettySize=auto;html=1;exitX=0;exitY=0.5;exitDx=0;exitDy=0;" edge="1" parent="WIyWlLk6GJQsqaUBKTNV-1" source="dnqFIHNs72ReMNe9dB7b-33">
          <mxGeometry relative="1" as="geometry">
            <mxPoint x="430" y="500" as="targetPoint" />
          </mxGeometry>
        </mxCell>
        <mxCell id="dnqFIHNs72ReMNe9dB7b-33" value="Для всех обьектов в самом центре аномалии" style="rounded=0;whiteSpace=wrap;html=1;" vertex="1" parent="WIyWlLk6GJQsqaUBKTNV-1">
          <mxGeometry x="645" y="90" width="120" height="40" as="geometry" />
        </mxCell>
        <mxCell id="dnqFIHNs72ReMNe9dB7b-43" style="edgeStyle=orthogonalEdgeStyle;rounded=0;orthogonalLoop=1;jettySize=auto;html=1;exitX=1;exitY=0.5;exitDx=0;exitDy=0;entryX=0;entryY=0.5;entryDx=0;entryDy=0;" edge="1" parent="WIyWlLk6GJQsqaUBKTNV-1" source="dnqFIHNs72ReMNe9dB7b-34" target="dnqFIHNs72ReMNe9dB7b-42">
          <mxGeometry relative="1" as="geometry" />
        </mxCell>
        <mxCell id="dnqFIHNs72ReMNe9dB7b-34" value="Если предмет" style="rounded=0;whiteSpace=wrap;html=1;" vertex="1" parent="WIyWlLk6GJQsqaUBKTNV-1">
          <mxGeometry x="550" y="170" width="120" height="40" as="geometry" />
        </mxCell>
        <mxCell id="dnqFIHNs72ReMNe9dB7b-41" style="edgeStyle=orthogonalEdgeStyle;rounded=0;orthogonalLoop=1;jettySize=auto;html=1;exitX=1;exitY=0.5;exitDx=0;exitDy=0;entryX=0;entryY=0.5;entryDx=0;entryDy=0;" edge="1" parent="WIyWlLk6GJQsqaUBKTNV-1" source="dnqFIHNs72ReMNe9dB7b-35" target="dnqFIHNs72ReMNe9dB7b-40">
          <mxGeometry relative="1" as="geometry" />
        </mxCell>
        <mxCell id="dnqFIHNs72ReMNe9dB7b-35" value="Если моб(простой)" style="rounded=0;whiteSpace=wrap;html=1;" vertex="1" parent="WIyWlLk6GJQsqaUBKTNV-1">
          <mxGeometry x="550" y="230" width="120" height="40" as="geometry" />
        </mxCell>
        <mxCell id="dnqFIHNs72ReMNe9dB7b-40" value="Гиб" style="rounded=0;whiteSpace=wrap;html=1;" vertex="1" parent="WIyWlLk6GJQsqaUBKTNV-1">
          <mxGeometry x="707" y="230" width="120" height="40" as="geometry" />
        </mxCell>
        <mxCell id="dnqFIHNs72ReMNe9dB7b-42" value="Удаление" style="rounded=0;whiteSpace=wrap;html=1;" vertex="1" parent="WIyWlLk6GJQsqaUBKTNV-1">
          <mxGeometry x="700" y="170" width="120" height="40" as="geometry" />
        </mxCell>
        <mxCell id="dnqFIHNs72ReMNe9dB7b-47" style="edgeStyle=orthogonalEdgeStyle;rounded=0;orthogonalLoop=1;jettySize=auto;html=1;exitX=1;exitY=0.5;exitDx=0;exitDy=0;entryX=0;entryY=0.5;entryDx=0;entryDy=0;" edge="1" parent="WIyWlLk6GJQsqaUBKTNV-1" source="dnqFIHNs72ReMNe9dB7b-44" target="dnqFIHNs72ReMNe9dB7b-46">
          <mxGeometry relative="1" as="geometry" />
        </mxCell>
        <mxCell id="dnqFIHNs72ReMNe9dB7b-44" value="Если моб(Человек и подобное)" style="rounded=0;whiteSpace=wrap;html=1;" vertex="1" parent="WIyWlLk6GJQsqaUBKTNV-1">
          <mxGeometry x="550" y="290" width="120" height="60" as="geometry" />
        </mxCell>
        <mxCell id="dnqFIHNs72ReMNe9dB7b-52" style="edgeStyle=orthogonalEdgeStyle;rounded=0;orthogonalLoop=1;jettySize=auto;html=1;exitX=1;exitY=0.5;exitDx=0;exitDy=0;entryX=0;entryY=0.5;entryDx=0;entryDy=0;" edge="1" parent="WIyWlLk6GJQsqaUBKTNV-1" source="dnqFIHNs72ReMNe9dB7b-46" target="dnqFIHNs72ReMNe9dB7b-48">
          <mxGeometry relative="1" as="geometry" />
        </mxCell>
        <mxCell id="dnqFIHNs72ReMNe9dB7b-46" value="Опрашивание артефактов" style="rounded=0;whiteSpace=wrap;html=1;" vertex="1" parent="WIyWlLk6GJQsqaUBKTNV-1">
          <mxGeometry x="707" y="295" width="133" height="50" as="geometry" />
        </mxCell>
        <mxCell id="dnqFIHNs72ReMNe9dB7b-50" value="Да" style="edgeStyle=orthogonalEdgeStyle;rounded=0;orthogonalLoop=1;jettySize=auto;html=1;exitX=1;exitY=0.5;exitDx=0;exitDy=0;entryX=0;entryY=0.5;entryDx=0;entryDy=0;" edge="1" parent="WIyWlLk6GJQsqaUBKTNV-1" source="dnqFIHNs72ReMNe9dB7b-48" target="dnqFIHNs72ReMNe9dB7b-49">
          <mxGeometry relative="1" as="geometry" />
        </mxCell>
        <mxCell id="dnqFIHNs72ReMNe9dB7b-53" value="Нет" style="edgeStyle=orthogonalEdgeStyle;rounded=0;orthogonalLoop=1;jettySize=auto;html=1;exitX=0.5;exitY=1;exitDx=0;exitDy=0;entryX=1;entryY=0.5;entryDx=0;entryDy=0;" edge="1" parent="WIyWlLk6GJQsqaUBKTNV-1" source="dnqFIHNs72ReMNe9dB7b-48" target="dnqFIHNs72ReMNe9dB7b-51">
          <mxGeometry relative="1" as="geometry" />
        </mxCell>
        <mxCell id="dnqFIHNs72ReMNe9dB7b-48" value="Эффект от грави" style="rounded=0;whiteSpace=wrap;html=1;" vertex="1" parent="WIyWlLk6GJQsqaUBKTNV-1">
          <mxGeometry x="870" y="295" width="133" height="50" as="geometry" />
        </mxCell>
        <mxCell id="dnqFIHNs72ReMNe9dB7b-49" value="Игнорировать моба" style="rounded=0;whiteSpace=wrap;html=1;" vertex="1" parent="WIyWlLk6GJQsqaUBKTNV-1">
          <mxGeometry x="1030" y="300" width="120" height="40" as="geometry" />
        </mxCell>
        <mxCell id="dnqFIHNs72ReMNe9dB7b-51" value="Оторвать конечность (Руку или ногу)" style="rounded=0;whiteSpace=wrap;html=1;" vertex="1" parent="WIyWlLk6GJQsqaUBKTNV-1">
          <mxGeometry x="707" y="380" width="133" height="50" as="geometry" />
        </mxCell>
        <mxCell id="dnqFIHNs72ReMNe9dB7b-59" style="edgeStyle=orthogonalEdgeStyle;rounded=0;orthogonalLoop=1;jettySize=auto;html=1;exitX=0.5;exitY=1;exitDx=0;exitDy=0;entryX=0.5;entryY=0;entryDx=0;entryDy=0;" edge="1" parent="WIyWlLk6GJQsqaUBKTNV-1" source="dnqFIHNs72ReMNe9dB7b-54" target="dnqFIHNs72ReMNe9dB7b-58">
          <mxGeometry relative="1" as="geometry" />
        </mxCell>
        <mxCell id="dnqFIHNs72ReMNe9dB7b-54" value="После просчёта возможности кого-то порвать" style="rounded=0;whiteSpace=wrap;html=1;" vertex="1" parent="WIyWlLk6GJQsqaUBKTNV-1">
          <mxGeometry x="620" y="480" width="335" height="40" as="geometry" />
        </mxCell>
        <mxCell id="dnqFIHNs72ReMNe9dB7b-57" value="" style="endArrow=classic;html=1;rounded=0;entryX=0;entryY=0.5;entryDx=0;entryDy=0;" edge="1" parent="WIyWlLk6GJQsqaUBKTNV-1" target="dnqFIHNs72ReMNe9dB7b-54">
          <mxGeometry width="50" height="50" relative="1" as="geometry">
            <mxPoint x="430" y="500" as="sourcePoint" />
            <mxPoint x="490" y="450" as="targetPoint" />
          </mxGeometry>
        </mxCell>
        <mxCell id="dnqFIHNs72ReMNe9dB7b-68" style="edgeStyle=orthogonalEdgeStyle;rounded=0;orthogonalLoop=1;jettySize=auto;html=1;exitX=0.5;exitY=1;exitDx=0;exitDy=0;entryX=0.5;entryY=0;entryDx=0;entryDy=0;" edge="1" parent="WIyWlLk6GJQsqaUBKTNV-1" source="dnqFIHNs72ReMNe9dB7b-58" target="dnqFIHNs72ReMNe9dB7b-60">
          <mxGeometry relative="1" as="geometry" />
        </mxCell>
        <mxCell id="dnqFIHNs72ReMNe9dB7b-69" style="edgeStyle=orthogonalEdgeStyle;rounded=0;orthogonalLoop=1;jettySize=auto;html=1;exitX=0.5;exitY=1;exitDx=0;exitDy=0;entryX=0.5;entryY=0;entryDx=0;entryDy=0;" edge="1" parent="WIyWlLk6GJQsqaUBKTNV-1" source="dnqFIHNs72ReMNe9dB7b-58" target="dnqFIHNs72ReMNe9dB7b-63">
          <mxGeometry relative="1" as="geometry" />
        </mxCell>
        <mxCell id="dnqFIHNs72ReMNe9dB7b-71" style="edgeStyle=orthogonalEdgeStyle;rounded=0;orthogonalLoop=1;jettySize=auto;html=1;exitX=0.5;exitY=1;exitDx=0;exitDy=0;entryX=0.5;entryY=0;entryDx=0;entryDy=0;" edge="1" parent="WIyWlLk6GJQsqaUBKTNV-1" source="dnqFIHNs72ReMNe9dB7b-58" target="dnqFIHNs72ReMNe9dB7b-64">
          <mxGeometry relative="1" as="geometry" />
        </mxCell>
        <mxCell id="dnqFIHNs72ReMNe9dB7b-58" value="Для всех обьектов в зоне поражения аномалий и на 1 тайл дальше" style="rounded=0;whiteSpace=wrap;html=1;" vertex="1" parent="WIyWlLk6GJQsqaUBKTNV-1">
          <mxGeometry x="620" y="540" width="340" height="40" as="geometry" />
        </mxCell>
        <mxCell id="dnqFIHNs72ReMNe9dB7b-67" style="edgeStyle=orthogonalEdgeStyle;rounded=0;orthogonalLoop=1;jettySize=auto;html=1;exitX=0.5;exitY=1;exitDx=0;exitDy=0;entryX=0.5;entryY=0;entryDx=0;entryDy=0;" edge="1" parent="WIyWlLk6GJQsqaUBKTNV-1" source="dnqFIHNs72ReMNe9dB7b-60" target="dnqFIHNs72ReMNe9dB7b-61">
          <mxGeometry relative="1" as="geometry" />
        </mxCell>
        <mxCell id="dnqFIHNs72ReMNe9dB7b-60" value="Если предмет" style="rounded=0;whiteSpace=wrap;html=1;" vertex="1" parent="WIyWlLk6GJQsqaUBKTNV-1">
          <mxGeometry x="440" y="620" width="120" height="40" as="geometry" />
        </mxCell>
        <mxCell id="dnqFIHNs72ReMNe9dB7b-61" value="Выкинуть на 1 тайл от центра" style="rounded=0;whiteSpace=wrap;html=1;" vertex="1" parent="WIyWlLk6GJQsqaUBKTNV-1">
          <mxGeometry x="440" y="690" width="120" height="40" as="geometry" />
        </mxCell>
        <mxCell id="dnqFIHNs72ReMNe9dB7b-62" value="Выкинуть на 1 тайл от центра" style="rounded=0;whiteSpace=wrap;html=1;" vertex="1" parent="WIyWlLk6GJQsqaUBKTNV-1">
          <mxGeometry x="587" y="690" width="120" height="40" as="geometry" />
        </mxCell>
        <mxCell id="dnqFIHNs72ReMNe9dB7b-66" style="edgeStyle=orthogonalEdgeStyle;rounded=0;orthogonalLoop=1;jettySize=auto;html=1;exitX=0.5;exitY=1;exitDx=0;exitDy=0;entryX=0.5;entryY=0;entryDx=0;entryDy=0;" edge="1" parent="WIyWlLk6GJQsqaUBKTNV-1" source="dnqFIHNs72ReMNe9dB7b-63" target="dnqFIHNs72ReMNe9dB7b-62">
          <mxGeometry relative="1" as="geometry" />
        </mxCell>
        <mxCell id="dnqFIHNs72ReMNe9dB7b-63" value="Если моб(простой)" style="rounded=0;whiteSpace=wrap;html=1;" vertex="1" parent="WIyWlLk6GJQsqaUBKTNV-1">
          <mxGeometry x="587" y="620" width="120" height="40" as="geometry" />
        </mxCell>
        <mxCell id="dnqFIHNs72ReMNe9dB7b-72" style="edgeStyle=orthogonalEdgeStyle;rounded=0;orthogonalLoop=1;jettySize=auto;html=1;exitX=0.5;exitY=1;exitDx=0;exitDy=0;entryX=0.5;entryY=0;entryDx=0;entryDy=0;" edge="1" parent="WIyWlLk6GJQsqaUBKTNV-1" source="dnqFIHNs72ReMNe9dB7b-64" target="dnqFIHNs72ReMNe9dB7b-65">
          <mxGeometry relative="1" as="geometry" />
        </mxCell>
        <mxCell id="dnqFIHNs72ReMNe9dB7b-64" value="Если моб(Человек и подобное)" style="rounded=0;whiteSpace=wrap;html=1;" vertex="1" parent="WIyWlLk6GJQsqaUBKTNV-1">
          <mxGeometry x="740" y="620" width="120" height="40" as="geometry" />
        </mxCell>
        <mxCell id="dnqFIHNs72ReMNe9dB7b-74" style="edgeStyle=orthogonalEdgeStyle;rounded=0;orthogonalLoop=1;jettySize=auto;html=1;exitX=1;exitY=0.5;exitDx=0;exitDy=0;entryX=0;entryY=0.5;entryDx=0;entryDy=0;" edge="1" parent="WIyWlLk6GJQsqaUBKTNV-1" source="dnqFIHNs72ReMNe9dB7b-65" target="dnqFIHNs72ReMNe9dB7b-73">
          <mxGeometry relative="1" as="geometry" />
        </mxCell>
        <mxCell id="dnqFIHNs72ReMNe9dB7b-80" style="edgeStyle=orthogonalEdgeStyle;rounded=0;orthogonalLoop=1;jettySize=auto;html=1;exitX=1;exitY=0.5;exitDx=0;exitDy=0;entryX=0;entryY=0.5;entryDx=0;entryDy=0;" edge="1" parent="WIyWlLk6GJQsqaUBKTNV-1" source="dnqFIHNs72ReMNe9dB7b-65" target="dnqFIHNs72ReMNe9dB7b-77">
          <mxGeometry relative="1" as="geometry" />
        </mxCell>
        <mxCell id="dnqFIHNs72ReMNe9dB7b-82" style="edgeStyle=orthogonalEdgeStyle;rounded=0;orthogonalLoop=1;jettySize=auto;html=1;exitX=0.5;exitY=1;exitDx=0;exitDy=0;entryX=0.5;entryY=0;entryDx=0;entryDy=0;" edge="1" parent="WIyWlLk6GJQsqaUBKTNV-1" source="dnqFIHNs72ReMNe9dB7b-65" target="dnqFIHNs72ReMNe9dB7b-81">
          <mxGeometry relative="1" as="geometry" />
        </mxCell>
        <mxCell id="dnqFIHNs72ReMNe9dB7b-65" value="Опрашивание артефактов" style="rounded=0;whiteSpace=wrap;html=1;" vertex="1" parent="WIyWlLk6GJQsqaUBKTNV-1">
          <mxGeometry x="737" y="690" width="123" height="40" as="geometry" />
        </mxCell>
        <mxCell id="dnqFIHNs72ReMNe9dB7b-70" style="edgeStyle=orthogonalEdgeStyle;rounded=0;orthogonalLoop=1;jettySize=auto;html=1;exitX=0.5;exitY=1;exitDx=0;exitDy=0;entryX=0.417;entryY=0;entryDx=0;entryDy=0;entryPerimeter=0;" edge="1" parent="WIyWlLk6GJQsqaUBKTNV-1" source="dnqFIHNs72ReMNe9dB7b-58" target="dnqFIHNs72ReMNe9dB7b-64">
          <mxGeometry relative="1" as="geometry">
            <Array as="points">
              <mxPoint x="790" y="600" />
              <mxPoint x="800" y="600" />
              <mxPoint x="800" y="620" />
            </Array>
          </mxGeometry>
        </mxCell>
        <mxCell id="dnqFIHNs72ReMNe9dB7b-76" style="edgeStyle=orthogonalEdgeStyle;rounded=0;orthogonalLoop=1;jettySize=auto;html=1;exitX=1;exitY=0.5;exitDx=0;exitDy=0;entryX=0;entryY=0.5;entryDx=0;entryDy=0;" edge="1" parent="WIyWlLk6GJQsqaUBKTNV-1" source="dnqFIHNs72ReMNe9dB7b-73" target="dnqFIHNs72ReMNe9dB7b-75">
          <mxGeometry relative="1" as="geometry" />
        </mxCell>
        <mxCell id="dnqFIHNs72ReMNe9dB7b-73" value="Эффект от грави" style="rounded=0;whiteSpace=wrap;html=1;" vertex="1" parent="WIyWlLk6GJQsqaUBKTNV-1">
          <mxGeometry x="900" y="690" width="120" height="40" as="geometry" />
        </mxCell>
        <mxCell id="dnqFIHNs72ReMNe9dB7b-75" value="Конец кода" style="rounded=0;whiteSpace=wrap;html=1;" vertex="1" parent="WIyWlLk6GJQsqaUBKTNV-1">
          <mxGeometry x="1040" y="690" width="120" height="40" as="geometry" />
        </mxCell>
        <mxCell id="dnqFIHNs72ReMNe9dB7b-79" style="edgeStyle=orthogonalEdgeStyle;rounded=0;orthogonalLoop=1;jettySize=auto;html=1;exitX=1;exitY=0.5;exitDx=0;exitDy=0;entryX=0;entryY=0.5;entryDx=0;entryDy=0;" edge="1" parent="WIyWlLk6GJQsqaUBKTNV-1" source="dnqFIHNs72ReMNe9dB7b-77" target="dnqFIHNs72ReMNe9dB7b-78">
          <mxGeometry relative="1" as="geometry" />
        </mxCell>
        <mxCell id="dnqFIHNs72ReMNe9dB7b-77" value="Эффект от воздуха" style="rounded=0;whiteSpace=wrap;html=1;" vertex="1" parent="WIyWlLk6GJQsqaUBKTNV-1">
          <mxGeometry x="900" y="750" width="120" height="40" as="geometry" />
        </mxCell>
        <mxCell id="dnqFIHNs72ReMNe9dB7b-78" value="Дальность полёта будет в 5 раз больше(т.е 5 турфов)" style="rounded=0;whiteSpace=wrap;html=1;" vertex="1" parent="WIyWlLk6GJQsqaUBKTNV-1">
          <mxGeometry x="1040" y="750" width="130" height="50" as="geometry" />
        </mxCell>
        <mxCell id="dnqFIHNs72ReMNe9dB7b-81" value="Выкинуть на [ДАЛЬНОСТЬ ПОЛЁТА] от центра. Обычно дальность полёта = 1" style="rounded=0;whiteSpace=wrap;html=1;" vertex="1" parent="WIyWlLk6GJQsqaUBKTNV-1">
          <mxGeometry x="737" y="810" width="123" height="80" as="geometry" />
        </mxCell>
      </root>
    </mxGraphModel>
  </diagram>
</mxfile>
